<svg width="471" height="375" viewBox="0 0 471 375" fill="none" xmlns="http://www.w3.org/2000/svg">
<path d="M453.384 226.986C444.874 236.641 434.247 243.613 423.922 250.389C417.643 254.517 411.203 258.772 405.155 263.605C386.75 278.402 370.689 295.898 357.516 315.499L355.296 318.829C345.907 332.959 335.258 348.974 318.295 351.807C305.437 353.957 291.701 348.06 276.218 333.78C266.112 324.449 257.718 317.939 249.751 313.302C239.229 307.174 229.632 304.572 221.202 305.555C211.385 306.712 202.702 312.736 195.475 323.512C192.411 328.068 189.694 333.063 187.115 337.908C182.259 346.927 177.24 356.247 169.563 363.069C168.892 363.658 168.21 364.225 167.505 364.78C160.86 369.823 152.955 372.939 144.656 373.787C136.291 374.712 127.825 373.885 119.796 371.359C102.707 366.063 88.4958 354.524 78.0199 345.065C63.5932 332.166 50.1722 318.185 37.8738 303.243C23.8365 285.991 13.5919 269.491 7.40575 254.182C1.57442 239.766 -0.583089 224.127 1.12715 208.67C3.08126 192.378 9.68363 178.515 20.2058 168.617C30.3117 159.101 43.4124 153.643 56.0505 148.37C61.2422 146.208 66.6074 143.976 71.6835 141.502C85.609 134.653 98.2539 125.462 109.066 114.329C119.916 103.231 128.876 90.4312 135.591 76.438C138.818 69.4292 141.67 62.254 144.136 54.9427C151.213 35.0777 157.907 16.2997 180.837 5.43068C193.706 -0.674489 208.923 -1.3567 224.775 3.45343C238.743 7.67386 252.873 16.0569 264.551 27.0531C276.843 38.616 287.11 52.3526 297.043 65.6498C305.171 76.357 313.474 87.4573 322.724 97.332C333.13 108.386 349.989 122.77 371.195 128.39C380.827 130.945 390.921 130.934 400.692 130.922C408.983 130.922 417.574 130.922 425.991 132.425C436.005 134.252 449.996 138.785 459.766 150.024C467.606 159.043 471.399 171.01 470.728 184.712C470.012 197.558 465.776 209.958 458.483 220.557C456.91 222.798 455.208 224.944 453.384 226.986ZM375.231 290.443C384.128 280.356 393.868 271.045 404.346 262.611C410.405 257.743 416.915 253.465 423.216 249.325C436.213 240.792 448.481 232.733 457.442 219.736C464.595 209.346 468.755 197.19 469.468 184.597C470.115 171.299 466.438 159.632 458.818 150.868C449.291 139.918 435.589 135.478 425.772 133.697C417.47 132.182 408.948 132.194 400.704 132.205C390.852 132.205 380.677 132.205 370.871 129.638C349.376 123.926 332.333 109.392 321.81 98.2223C312.468 88.2898 304.166 77.178 296.129 66.4246C286.232 53.1736 275.999 39.4832 263.753 27.9897C252.191 17.1207 238.315 8.85326 224.44 4.67909C208.842 -0.0269814 193.949 0.632104 181.38 6.59852C158.925 17.2479 152.311 35.7715 145.327 55.3821C142.845 62.7354 139.977 69.9529 136.736 77.0045C129.965 91.1253 120.922 104.039 109.968 115.231C99.0539 126.466 86.292 135.743 72.2385 142.658C67.1162 145.156 61.7395 147.399 56.5246 149.596C43.9674 154.834 30.9939 160.234 21.0499 169.6C10.7474 179.289 4.28379 192.876 2.3528 208.913C0.672955 224.151 2.80665 239.568 8.56203 253.777C14.6788 268.97 24.8656 285.367 38.8335 302.514C51.0937 317.385 64.4681 331.3 78.8409 344.14C89.2474 353.506 103.296 364.953 120.132 370.168C127.994 372.633 136.281 373.444 144.471 372.55C152.537 371.722 160.221 368.694 166.684 363.797C167.366 363.277 168.036 362.71 168.684 362.132C176.188 355.472 181.149 346.245 185.959 337.318C188.572 332.462 191.278 327.432 194.388 322.819C201.858 311.718 210.819 305.474 220.983 304.318C229.689 303.3 239.564 305.96 250.318 312.227C258.411 316.921 266.841 323.478 277.016 332.878C292.152 346.869 305.565 352.662 318.018 350.581C325.314 349.425 332.043 345.482 338.6 338.729C344.381 332.739 349.353 325.316 354.117 318.147L356.337 314.817C362.095 306.287 368.406 298.145 375.231 290.443Z" fill="white" fill-opacity="0.27"/>
</svg>
