<svg xmlns="http://www.w3.org/2000/svg" viewBox="0 0 473.05 148.58"><defs><style>.cls-1{fill:#231f20;fill-rule:evenodd;}</style></defs><g id="Слой_2" data-name="Слой 2"><g id="Vector_Logo" data-name="Vector Logo"><polygon class="cls-1" points="124.64 135.13 121.03 148.58 0 148.58 3.6 135.13 124.64 135.13 124.64 135.13"/><polygon class="cls-1" points="280.97 135.13 277.37 148.58 156.34 148.58 159.94 135.13 280.97 135.13 280.97 135.13"/><polygon class="cls-1" points="437.17 135.13 433.56 148.58 312.53 148.58 316.13 135.13 437.17 135.13 437.17 135.13"/><path class="cls-1" d="M93.71,41.27H80.52L77.1,54H90.92a10,10,0,0,0,5.94-1.78,8.4,8.4,0,0,0,3.28-4.79q1.67-6.19-6.43-6.2Z"/><path class="cls-1" d="M87.64,65.74H74L70.07,80.29H85.65a11.17,11.17,0,0,0,6.5-2,9.1,9.1,0,0,0,3.74-5.26q2-7.32-8.25-7.32Z"/><path class="cls-1" d="M39.49,0,7.06,121h121L160.52,0ZM116,45.15q-2.61,9.72-14,13.26c4,.92,6.76,2.8,8.41,5.68s1.92,6.44.79,10.68Q106.5,92.58,82.14,92.58H51.87L68.92,29h31.84Q120.35,29,116,45.15Z"/><path class="cls-1" d="M244.3,65.74H230.63l-3.9,14.55h15.59a11.21,11.21,0,0,0,6.5-2,9.08,9.08,0,0,0,3.73-5.26q2-7.32-8.25-7.32Z"/><path class="cls-1" d="M250.37,41.27H237.19L233.77,54h13.82a9.94,9.94,0,0,0,5.93-1.78,8.36,8.36,0,0,0,3.28-4.79q1.68-6.19-6.43-6.2Z"/><path class="cls-1" d="M195.83,0,163.4,121h121L316.86,0Zm76.85,45.15q-2.61,9.72-13.94,13.26c3.95.92,6.75,2.8,8.41,5.68s1.92,6.44.78,10.68q-4.76,17.81-29.13,17.81H208.54l17-63.61h31.84Q277,29,272.68,45.15Z"/><path class="cls-1" d="M352,0,319.59,121h121L473.05,0Zm77.52,50.63h-14.7q1.62-11.13-10.26-11.13-15.16,0-21,21.91-2.55,9.56.08,15.1t10,5.55q11.61,0,16.52-11.91H425a35.79,35.79,0,0,1-13.33,17.9q-9.13,6.3-22,6.3-15.26,0-21-8.21T367.21,62Q374.42,35,396.08,28.74a39.42,39.42,0,0,1,11-1.54q15.08,0,20.61,8.17,4.22,6.27,1.81,15.26Z"/></g></g></svg>