<?xml version="1.0" encoding="utf-8"?>
<!-- Generator: Adobe Illustrator 24.1.2, SVG Export Plug-In . SVG Version: 6.00 Build 0)  -->
<svg version="1.1" id="Capa_1" xmlns="http://www.w3.org/2000/svg" xmlns:xlink="http://www.w3.org/1999/xlink" x="0px" y="0px"
	 viewBox="0 0 800 800" style="enable-background:new 0 0 800 800;" xml:space="preserve">
<style type="text/css">
	.st0{fill:#0E333D;stroke:#FFFFFF;stroke-miterlimit:10;}
	.st1{fill:#0E333D;}
</style>
<g>
	<g>
		<g>
			<path class="st0" d="M0,400.1c0,15.2,12.3,27.6,27.6,27.6h525.1L450.3,529.9c-10.7,10.7-10.7,28.2,0,39c5.3,5.3,12.3,8,19.4,8
				c7.1,0,14.1-2.7,19.4-8l149.2-149.2c10.7-10.7,10.7-28.2,0-39L489,231.5c-10.7-10.7-28.2-10.7-39,0c-10.7,10.7-10.7,28.2,0,39
				l102.3,102.3H27.6C12.3,372.7,0,384.9,0,400.1z"/>
			<path class="st1" d="M635.4,792.1c90.9,0,164.6-73.9,164.6-164.8V172.6C800,81.7,726.1,7.9,635.4,7.9H180.6
				C89.8,7.9,16,81.7,16,172.6v93.4c0,15.2,12.3,27.4,27.4,27.4c15.2,0,27.6-12.3,27.6-27.4v-93.4c0-60.4,49.2-109.8,109.6-109.8
				h454.7C695.8,62.8,745,112,745,172.6v454.7c0,60.4-49.2,109.8-109.6,109.8H180.6C120.2,737.2,71,688,71,627.4V535
				c0-15.2-12.3-27.6-27.6-27.6S16,519.8,16,535v92.3c0,90.9,73.9,164.8,164.6,164.8H635.4L635.4,792.1z"/>
		</g>
	</g>
</g>
</svg>
